<svg xmlns="http://www.w3.org/2000/svg" width="177" height="177" viewBox="0 0 177 177"><defs><style>.a{fill:#f5f9f4;}.b{fill:#a2de96;}</style></defs><g transform="translate(-867 -989)"><rect class="a" width="177" height="177" transform="translate(867 989)"/><g transform="translate(816.715 1004)"><g transform="translate(93.285)"><path class="b" d="M321.836,135.522,315.14,85.3h.186a3.56,3.56,0,0,0,3.56-3.56V9.341a3.561,3.561,0,0,0-5.221-3.15A42.321,42.321,0,0,0,291.09,43.624V74.15A11.15,11.15,0,0,0,302.24,85.3h.844l-6.7,50.224a12.837,12.837,0,1,0,25.448,0Z" transform="translate(-231.833 -4.048)"/><path class="b" d="M127.5,0a4.884,4.884,0,0,0-4.887,4.887v27.3h-4.887V4.887a4.887,4.887,0,0,0-9.774,0v27.3H103.06V4.887a4.887,4.887,0,0,0-9.775,0V49A13.123,13.123,0,0,0,106.41,62.121h1.083l-7.7,69.315a13.124,13.124,0,1,0,26.088,0l-7.7-69.314h1.084A13.123,13.123,0,0,0,132.383,49V4.887A4.885,4.885,0,0,0,127.5,0Z" transform="translate(-93.285)"/></g></g></g></svg>